<mxfile host="app.diagrams.net" modified="2021-12-13T23:35:42.746Z" agent="5.0 (Windows NT 10.0; Win64; x64) AppleWebKit/537.36 (KHTML, like Gecko) Chrome/96.0.4664.55 Safari/537.36 Edg/96.0.1054.43" etag="1rq2VI0at-9nkFoXUVld" version="15.7.1" type="github">
  <diagram id="8wIR9x9PhOQbIeWHdhUF" name="Page-1">
    <mxGraphModel dx="1422" dy="754" grid="1" gridSize="10" guides="1" tooltips="1" connect="1" arrows="1" fold="1" page="1" pageScale="1" pageWidth="850" pageHeight="1100" math="0" shadow="0">
      <root>
        <mxCell id="0" />
        <mxCell id="1" parent="0" />
        <mxCell id="1pEwygI7WZCWr1BvpcJv-58" style="edgeStyle=orthogonalEdgeStyle;rounded=0;orthogonalLoop=1;jettySize=auto;html=1;exitX=1;exitY=0.5;exitDx=0;exitDy=0;entryX=0;entryY=0.5;entryDx=0;entryDy=0;fillColor=#d5e8d4;strokeColor=#82b366;" parent="1" source="1pEwygI7WZCWr1BvpcJv-5" target="1pEwygI7WZCWr1BvpcJv-34" edge="1">
          <mxGeometry relative="1" as="geometry">
            <Array as="points">
              <mxPoint x="690" y="60" />
              <mxPoint x="690" y="260" />
            </Array>
          </mxGeometry>
        </mxCell>
        <mxCell id="1pEwygI7WZCWr1BvpcJv-5" value="SheerIDOutOfScope&lt;br&gt;" style="ellipse;whiteSpace=wrap;html=1;fillColor=#f5f5f5;strokeColor=#666666;fontColor=#333333;" parent="1" vertex="1">
          <mxGeometry x="340" y="20" width="120" height="80" as="geometry" />
        </mxCell>
        <mxCell id="1pEwygI7WZCWr1BvpcJv-6" style="edgeStyle=orthogonalEdgeStyle;rounded=0;orthogonalLoop=1;jettySize=auto;html=1;exitX=1;exitY=0.5;exitDx=0;exitDy=0;entryX=0;entryY=0.5;entryDx=0;entryDy=0;fillColor=#f8cecc;strokeColor=#b85450;" parent="1" source="1pEwygI7WZCWr1BvpcJv-7" target="1pEwygI7WZCWr1BvpcJv-35" edge="1">
          <mxGeometry relative="1" as="geometry">
            <mxPoint x="720.0000000000005" y="650" as="targetPoint" />
            <Array as="points" />
          </mxGeometry>
        </mxCell>
        <mxCell id="1pEwygI7WZCWr1BvpcJv-7" value="UserRiskRejected*" style="ellipse;whiteSpace=wrap;html=1;fillColor=#f8cecc;strokeColor=#b85450;" parent="1" vertex="1">
          <mxGeometry x="340" y="120" width="120" height="80" as="geometry" />
        </mxCell>
        <mxCell id="1pEwygI7WZCWr1BvpcJv-8" style="edgeStyle=orthogonalEdgeStyle;rounded=0;orthogonalLoop=1;jettySize=auto;html=1;exitX=0.5;exitY=0;exitDx=0;exitDy=0;entryX=0;entryY=0.5;entryDx=0;entryDy=0;" parent="1" source="1pEwygI7WZCWr1BvpcJv-40" target="1pEwygI7WZCWr1BvpcJv-7" edge="1">
          <mxGeometry relative="1" as="geometry">
            <mxPoint x="240" y="230" as="sourcePoint" />
          </mxGeometry>
        </mxCell>
        <mxCell id="1pEwygI7WZCWr1BvpcJv-9" style="edgeStyle=orthogonalEdgeStyle;rounded=0;orthogonalLoop=1;jettySize=auto;html=1;exitX=0.5;exitY=0;exitDx=0;exitDy=0;entryX=0;entryY=0.5;entryDx=0;entryDy=0;" parent="1" source="1pEwygI7WZCWr1BvpcJv-40" target="1pEwygI7WZCWr1BvpcJv-13" edge="1">
          <mxGeometry relative="1" as="geometry">
            <mxPoint x="280" y="270" as="sourcePoint" />
          </mxGeometry>
        </mxCell>
        <mxCell id="1pEwygI7WZCWr1BvpcJv-10" style="edgeStyle=orthogonalEdgeStyle;rounded=0;orthogonalLoop=1;jettySize=auto;html=1;exitX=0.5;exitY=0;exitDx=0;exitDy=0;entryX=0;entryY=0.5;entryDx=0;entryDy=0;" parent="1" source="1pEwygI7WZCWr1BvpcJv-40" target="1pEwygI7WZCWr1BvpcJv-14" edge="1">
          <mxGeometry relative="1" as="geometry">
            <mxPoint x="240" y="310" as="sourcePoint" />
          </mxGeometry>
        </mxCell>
        <mxCell id="1pEwygI7WZCWr1BvpcJv-56" style="edgeStyle=orthogonalEdgeStyle;rounded=0;orthogonalLoop=1;jettySize=auto;html=1;exitX=1;exitY=0.5;exitDx=0;exitDy=0;entryX=0;entryY=0.5;entryDx=0;entryDy=0;fillColor=#d5e8d4;strokeColor=#82b366;" parent="1" source="1pEwygI7WZCWr1BvpcJv-13" target="1pEwygI7WZCWr1BvpcJv-34" edge="1">
          <mxGeometry relative="1" as="geometry" />
        </mxCell>
        <mxCell id="1pEwygI7WZCWr1BvpcJv-13" value="UserRiskApproved" style="ellipse;whiteSpace=wrap;html=1;fillColor=#d5e8d4;strokeColor=#82b366;" parent="1" vertex="1">
          <mxGeometry x="340" y="220" width="120" height="80" as="geometry" />
        </mxCell>
        <mxCell id="1pEwygI7WZCWr1BvpcJv-95" style="edgeStyle=orthogonalEdgeStyle;rounded=0;orthogonalLoop=1;jettySize=auto;html=1;exitX=1;exitY=0.5;exitDx=0;exitDy=0;entryX=0;entryY=0.5;entryDx=0;entryDy=0;endArrow=classic;endFill=1;" parent="1" source="1pEwygI7WZCWr1BvpcJv-14" target="1pEwygI7WZCWr1BvpcJv-94" edge="1">
          <mxGeometry relative="1" as="geometry" />
        </mxCell>
        <mxCell id="1pEwygI7WZCWr1BvpcJv-14" value="UserRiskChallenge*" style="ellipse;whiteSpace=wrap;html=1;fillColor=#fff2cc;strokeColor=#d6b656;" parent="1" vertex="1">
          <mxGeometry x="340" y="310" width="120" height="80" as="geometry" />
        </mxCell>
        <mxCell id="1pEwygI7WZCWr1BvpcJv-57" style="edgeStyle=orthogonalEdgeStyle;rounded=0;orthogonalLoop=1;jettySize=auto;html=1;exitX=1;exitY=0.5;exitDx=0;exitDy=0;entryX=0;entryY=0.5;entryDx=0;entryDy=0;fillColor=#d5e8d4;strokeColor=#82b366;" parent="1" source="1pEwygI7WZCWr1BvpcJv-20" target="1pEwygI7WZCWr1BvpcJv-34" edge="1">
          <mxGeometry relative="1" as="geometry" />
        </mxCell>
        <mxCell id="1pEwygI7WZCWr1BvpcJv-20" value="SchoolRegistry&lt;br&gt;Approved" style="ellipse;whiteSpace=wrap;html=1;fillColor=#d5e8d4;strokeColor=#82b366;" parent="1" vertex="1">
          <mxGeometry x="335" y="510" width="135" height="80" as="geometry" />
        </mxCell>
        <mxCell id="1pEwygI7WZCWr1BvpcJv-97" style="edgeStyle=orthogonalEdgeStyle;rounded=0;orthogonalLoop=1;jettySize=auto;html=1;exitX=1;exitY=0.5;exitDx=0;exitDy=0;entryX=0;entryY=0.5;entryDx=0;entryDy=0;endArrow=classic;endFill=1;" parent="1" source="1pEwygI7WZCWr1BvpcJv-22" target="1pEwygI7WZCWr1BvpcJv-96" edge="1">
          <mxGeometry relative="1" as="geometry" />
        </mxCell>
        <mxCell id="1pEwygI7WZCWr1BvpcJv-22" value="DocReviewNeeded*" style="ellipse;whiteSpace=wrap;html=1;fillColor=#fff2cc;strokeColor=#d6b656;" parent="1" vertex="1">
          <mxGeometry x="340" y="610" width="120" height="80" as="geometry" />
        </mxCell>
        <mxCell id="1pEwygI7WZCWr1BvpcJv-27" style="edgeStyle=orthogonalEdgeStyle;rounded=0;orthogonalLoop=1;jettySize=auto;html=1;exitX=0.5;exitY=1;exitDx=0;exitDy=0;entryX=0.45;entryY=0.067;entryDx=0;entryDy=0;entryPerimeter=0;" parent="1" source="1pEwygI7WZCWr1BvpcJv-29" target="1pEwygI7WZCWr1BvpcJv-36" edge="1">
          <mxGeometry relative="1" as="geometry" />
        </mxCell>
        <mxCell id="1pEwygI7WZCWr1BvpcJv-29" value="DocReview&lt;br&gt;InProgress*" style="ellipse;whiteSpace=wrap;html=1;fillColor=#fff2cc;strokeColor=#d6b656;" parent="1" vertex="1">
          <mxGeometry x="335" y="900" width="130" height="80" as="geometry" />
        </mxCell>
        <mxCell id="1pEwygI7WZCWr1BvpcJv-59" style="edgeStyle=orthogonalEdgeStyle;rounded=0;orthogonalLoop=1;jettySize=auto;html=1;exitX=1;exitY=0.5;exitDx=0;exitDy=0;entryX=0;entryY=0.5;entryDx=0;entryDy=0;fillColor=#d5e8d4;strokeColor=#82b366;" parent="1" source="1pEwygI7WZCWr1BvpcJv-31" target="1pEwygI7WZCWr1BvpcJv-34" edge="1">
          <mxGeometry relative="1" as="geometry">
            <Array as="points">
              <mxPoint x="690" y="740" />
              <mxPoint x="690" y="260" />
            </Array>
          </mxGeometry>
        </mxCell>
        <mxCell id="1pEwygI7WZCWr1BvpcJv-31" value="DocReviewApproved" style="ellipse;whiteSpace=wrap;html=1;fillColor=#d5e8d4;strokeColor=#82b366;" parent="1" vertex="1">
          <mxGeometry x="340" y="700" width="120" height="80" as="geometry" />
        </mxCell>
        <mxCell id="1pEwygI7WZCWr1BvpcJv-53" style="edgeStyle=orthogonalEdgeStyle;rounded=0;orthogonalLoop=1;jettySize=auto;html=1;exitX=1;exitY=0.5;exitDx=0;exitDy=0;entryX=0;entryY=0.5;entryDx=0;entryDy=0;fillColor=#f8cecc;strokeColor=#b85450;" parent="1" source="1pEwygI7WZCWr1BvpcJv-33" target="1pEwygI7WZCWr1BvpcJv-37" edge="1">
          <mxGeometry relative="1" as="geometry" />
        </mxCell>
        <mxCell id="1pEwygI7WZCWr1BvpcJv-33" value="DocReviewRejected*" style="ellipse;whiteSpace=wrap;html=1;fillColor=#f8cecc;strokeColor=#b85450;" parent="1" vertex="1">
          <mxGeometry x="340" y="800" width="120" height="80" as="geometry" />
        </mxCell>
        <mxCell id="1pEwygI7WZCWr1BvpcJv-34" value="proceed to signup" style="whiteSpace=wrap;html=1;aspect=fixed;fillColor=#e1d5e7;strokeColor=#9673a6;" parent="1" vertex="1">
          <mxGeometry x="730" y="220" width="80" height="80" as="geometry" />
        </mxCell>
        <mxCell id="1pEwygI7WZCWr1BvpcJv-35" value="risk reject" style="whiteSpace=wrap;html=1;aspect=fixed;fillColor=#e1d5e7;strokeColor=#9673a6;" parent="1" vertex="1">
          <mxGeometry x="550" y="120" width="80" height="80" as="geometry" />
        </mxCell>
        <mxCell id="1pEwygI7WZCWr1BvpcJv-36" value="Doc review message" style="rounded=0;whiteSpace=wrap;html=1;fillColor=#dae8fc;strokeColor=#6c8ebf;" parent="1" vertex="1">
          <mxGeometry x="345" y="1010" width="120" height="60" as="geometry" />
        </mxCell>
        <mxCell id="1pEwygI7WZCWr1BvpcJv-37" value="doc review failed" style="whiteSpace=wrap;html=1;aspect=fixed;fillColor=#e1d5e7;strokeColor=#9673a6;" parent="1" vertex="1">
          <mxGeometry x="550" y="800" width="80" height="80" as="geometry" />
        </mxCell>
        <mxCell id="1pEwygI7WZCWr1BvpcJv-38" style="edgeStyle=orthogonalEdgeStyle;rounded=0;orthogonalLoop=1;jettySize=auto;html=1;exitX=1;exitY=0.5;exitDx=0;exitDy=0;entryX=0;entryY=0.5;entryDx=0;entryDy=0;" parent="1" source="1pEwygI7WZCWr1BvpcJv-39" target="1pEwygI7WZCWr1BvpcJv-40" edge="1">
          <mxGeometry relative="1" as="geometry" />
        </mxCell>
        <mxCell id="1pEwygI7WZCWr1BvpcJv-39" value="Returning user" style="ellipse;whiteSpace=wrap;html=1;" parent="1" vertex="1">
          <mxGeometry x="40" y="510" width="120" height="80" as="geometry" />
        </mxCell>
        <mxCell id="1pEwygI7WZCWr1BvpcJv-41" style="edgeStyle=orthogonalEdgeStyle;rounded=0;orthogonalLoop=1;jettySize=auto;html=1;exitX=0.5;exitY=0;exitDx=0;exitDy=0;entryX=0;entryY=0.5;entryDx=0;entryDy=0;" parent="1" source="1pEwygI7WZCWr1BvpcJv-40" target="1pEwygI7WZCWr1BvpcJv-5" edge="1">
          <mxGeometry relative="1" as="geometry" />
        </mxCell>
        <mxCell id="1pEwygI7WZCWr1BvpcJv-54" style="edgeStyle=orthogonalEdgeStyle;rounded=0;orthogonalLoop=1;jettySize=auto;html=1;exitX=0.5;exitY=1;exitDx=0;exitDy=0;entryX=0;entryY=0.5;entryDx=0;entryDy=0;" parent="1" source="1pEwygI7WZCWr1BvpcJv-40" target="1pEwygI7WZCWr1BvpcJv-31" edge="1">
          <mxGeometry relative="1" as="geometry" />
        </mxCell>
        <mxCell id="1pEwygI7WZCWr1BvpcJv-55" style="edgeStyle=orthogonalEdgeStyle;rounded=0;orthogonalLoop=1;jettySize=auto;html=1;exitX=0.5;exitY=1;exitDx=0;exitDy=0;entryX=0;entryY=0.5;entryDx=0;entryDy=0;" parent="1" source="1pEwygI7WZCWr1BvpcJv-40" target="1pEwygI7WZCWr1BvpcJv-33" edge="1">
          <mxGeometry relative="1" as="geometry" />
        </mxCell>
        <mxCell id="1pEwygI7WZCWr1BvpcJv-63" style="edgeStyle=orthogonalEdgeStyle;rounded=0;orthogonalLoop=1;jettySize=auto;html=1;exitX=0.5;exitY=0;exitDx=0;exitDy=0;entryX=1;entryY=0.5;entryDx=0;entryDy=0;" parent="1" source="1pEwygI7WZCWr1BvpcJv-40" target="1pEwygI7WZCWr1BvpcJv-60" edge="1">
          <mxGeometry relative="1" as="geometry" />
        </mxCell>
        <mxCell id="1pEwygI7WZCWr1BvpcJv-86" style="edgeStyle=orthogonalEdgeStyle;rounded=0;orthogonalLoop=1;jettySize=auto;html=1;exitX=0.5;exitY=1;exitDx=0;exitDy=0;entryX=0;entryY=0.5;entryDx=0;entryDy=0;" parent="1" source="1pEwygI7WZCWr1BvpcJv-40" target="1pEwygI7WZCWr1BvpcJv-22" edge="1">
          <mxGeometry relative="1" as="geometry">
            <mxPoint x="255" y="650" as="targetPoint" />
          </mxGeometry>
        </mxCell>
        <mxCell id="1pEwygI7WZCWr1BvpcJv-88" style="edgeStyle=orthogonalEdgeStyle;rounded=0;orthogonalLoop=1;jettySize=auto;html=1;exitX=0.5;exitY=1;exitDx=0;exitDy=0;entryX=0;entryY=0.5;entryDx=0;entryDy=0;" parent="1" source="1pEwygI7WZCWr1BvpcJv-40" target="1pEwygI7WZCWr1BvpcJv-29" edge="1">
          <mxGeometry relative="1" as="geometry" />
        </mxCell>
        <mxCell id="1pEwygI7WZCWr1BvpcJv-93" style="edgeStyle=orthogonalEdgeStyle;rounded=0;orthogonalLoop=1;jettySize=auto;html=1;exitX=1;exitY=0.5;exitDx=0;exitDy=0;entryX=0;entryY=0.5;entryDx=0;entryDy=0;dashed=1;endArrow=none;endFill=0;" parent="1" source="1pEwygI7WZCWr1BvpcJv-40" target="1pEwygI7WZCWr1BvpcJv-20" edge="1">
          <mxGeometry relative="1" as="geometry" />
        </mxCell>
        <mxCell id="ZGGSdzQtQByYn4G9-0d0-2" style="edgeStyle=orthogonalEdgeStyle;rounded=0;orthogonalLoop=1;jettySize=auto;html=1;exitX=0.5;exitY=0;exitDx=0;exitDy=0;entryX=0;entryY=0.5;entryDx=0;entryDy=0;endArrow=classic;endFill=1;" edge="1" parent="1" source="1pEwygI7WZCWr1BvpcJv-40" target="ZGGSdzQtQByYn4G9-0d0-1">
          <mxGeometry relative="1" as="geometry" />
        </mxCell>
        <mxCell id="1pEwygI7WZCWr1BvpcJv-40" value="Get User from DB" style="whiteSpace=wrap;html=1;aspect=fixed;fillColor=#dae8fc;strokeColor=#6c8ebf;" parent="1" vertex="1">
          <mxGeometry x="190" y="510" width="80" height="80" as="geometry" />
        </mxCell>
        <mxCell id="1pEwygI7WZCWr1BvpcJv-64" style="edgeStyle=orthogonalEdgeStyle;rounded=0;orthogonalLoop=1;jettySize=auto;html=1;exitX=0;exitY=0.5;exitDx=0;exitDy=0;entryX=0;entryY=0.5;entryDx=0;entryDy=0;" parent="1" source="1pEwygI7WZCWr1BvpcJv-60" target="1pEwygI7WZCWr1BvpcJv-5" edge="1">
          <mxGeometry relative="1" as="geometry">
            <Array as="points">
              <mxPoint x="60" y="440" />
              <mxPoint x="60" y="60" />
            </Array>
          </mxGeometry>
        </mxCell>
        <mxCell id="1pEwygI7WZCWr1BvpcJv-65" value="code verification&lt;br&gt;adt4t manual upload" style="edgeLabel;html=1;align=center;verticalAlign=middle;resizable=0;points=[];" parent="1pEwygI7WZCWr1BvpcJv-64" vertex="1" connectable="0">
          <mxGeometry x="-0.138" relative="1" as="geometry">
            <mxPoint as="offset" />
          </mxGeometry>
        </mxCell>
        <mxCell id="1pEwygI7WZCWr1BvpcJv-66" value="&lt;span style=&quot;color: rgb(0 , 0 , 0) ; font-family: &amp;#34;helvetica&amp;#34; ; font-size: 12px ; font-style: normal ; font-weight: 400 ; letter-spacing: normal ; text-align: center ; text-indent: 0px ; text-transform: none ; word-spacing: 0px ; background-color: rgb(248 , 249 , 250) ; display: inline ; float: none&quot;&gt;email verif.&lt;/span&gt;&lt;br style=&quot;color: rgb(0 , 0 , 0) ; font-family: &amp;#34;helvetica&amp;#34; ; font-size: 12px ; font-style: normal ; font-weight: 400 ; letter-spacing: normal ; text-align: center ; text-indent: 0px ; text-transform: none ; word-spacing: 0px ; background-color: rgb(248 , 249 , 250)&quot;&gt;&lt;span style=&quot;color: rgb(0 , 0 , 0) ; font-family: &amp;#34;helvetica&amp;#34; ; font-size: 12px ; font-style: normal ; font-weight: 400 ; letter-spacing: normal ; text-align: center ; text-indent: 0px ; text-transform: none ; word-spacing: 0px ; background-color: rgb(248 , 249 , 250) ; display: inline ; float: none&quot;&gt;aad verif,&lt;/span&gt;&lt;br style=&quot;color: rgb(0 , 0 , 0) ; font-family: &amp;#34;helvetica&amp;#34; ; font-size: 12px ; font-style: normal ; font-weight: 400 ; letter-spacing: normal ; text-align: center ; text-indent: 0px ; text-transform: none ; word-spacing: 0px ; background-color: rgb(248 , 249 , 250)&quot;&gt;&lt;span style=&quot;color: rgb(0 , 0 , 0) ; font-family: &amp;#34;helvetica&amp;#34; ; font-size: 12px ; font-style: normal ; font-weight: 400 ; letter-spacing: normal ; text-align: center ; text-indent: 0px ; text-transform: none ; word-spacing: 0px ; background-color: rgb(248 , 249 , 250) ; display: inline ; float: none&quot;&gt;shibboleth&lt;/span&gt;" style="edgeStyle=orthogonalEdgeStyle;rounded=0;orthogonalLoop=1;jettySize=auto;html=1;exitX=0.5;exitY=0;exitDx=0;exitDy=0;entryX=0.5;entryY=1;entryDx=0;entryDy=0;" parent="1" source="1pEwygI7WZCWr1BvpcJv-60" target="1pEwygI7WZCWr1BvpcJv-61" edge="1">
          <mxGeometry relative="1" as="geometry" />
        </mxCell>
        <mxCell id="1pEwygI7WZCWr1BvpcJv-60" value="&lt;p class=&quot;MsoListParagraph&quot; style=&quot;text-indent: -0.25in&quot;&gt;&amp;nbsp; &amp;nbsp; &amp;nbsp; &amp;nbsp; &amp;nbsp;UserRiskNotCalled&lt;/p&gt;" style="ellipse;whiteSpace=wrap;html=1;fillColor=#f5f5f5;strokeColor=#666666;fontColor=#333333;" parent="1" vertex="1">
          <mxGeometry x="70" y="390" width="120" height="80" as="geometry" />
        </mxCell>
        <mxCell id="1pEwygI7WZCWr1BvpcJv-61" value="User Risk**" style="whiteSpace=wrap;html=1;aspect=fixed;fillColor=#dae8fc;strokeColor=#6c8ebf;" parent="1" vertex="1">
          <mxGeometry x="90" y="200" width="80" height="80" as="geometry" />
        </mxCell>
        <mxCell id="1pEwygI7WZCWr1BvpcJv-94" value="School Registry**" style="whiteSpace=wrap;html=1;aspect=fixed;fillColor=#dae8fc;strokeColor=#6c8ebf;" parent="1" vertex="1">
          <mxGeometry x="490" y="310" width="80" height="80" as="geometry" />
        </mxCell>
        <mxCell id="1pEwygI7WZCWr1BvpcJv-96" value="Document upload**" style="whiteSpace=wrap;html=1;aspect=fixed;fillColor=#dae8fc;strokeColor=#6c8ebf;" parent="1" vertex="1">
          <mxGeometry x="490" y="610" width="80" height="80" as="geometry" />
        </mxCell>
        <mxCell id="1pEwygI7WZCWr1BvpcJv-99" value="* ensure the current state via &lt;br&gt;AVE get user verification, &lt;br&gt;or change state" style="text;html=1;align=center;verticalAlign=middle;resizable=0;points=[];autosize=1;strokeColor=none;fillColor=none;" parent="1" vertex="1">
          <mxGeometry x="20" y="960" width="170" height="50" as="geometry" />
        </mxCell>
        <mxCell id="1pEwygI7WZCWr1BvpcJv-100" value="** follow link to same&amp;nbsp;bubble &lt;br&gt;in new user flow" style="text;html=1;align=center;verticalAlign=middle;resizable=0;points=[];autosize=1;strokeColor=none;fillColor=none;" parent="1" vertex="1">
          <mxGeometry x="15" y="1040" width="170" height="30" as="geometry" />
        </mxCell>
        <mxCell id="ZGGSdzQtQByYn4G9-0d0-9" style="edgeStyle=orthogonalEdgeStyle;rounded=0;orthogonalLoop=1;jettySize=auto;html=1;exitX=0;exitY=0;exitDx=0;exitDy=0;endArrow=classic;endFill=1;" edge="1" parent="1" source="ZGGSdzQtQByYn4G9-0d0-1">
          <mxGeometry relative="1" as="geometry">
            <mxPoint x="180" y="412" as="targetPoint" />
          </mxGeometry>
        </mxCell>
        <mxCell id="ZGGSdzQtQByYn4G9-0d0-1" value="null" style="ellipse;whiteSpace=wrap;html=1;" vertex="1" parent="1">
          <mxGeometry x="335" y="400" width="120" height="80" as="geometry" />
        </mxCell>
      </root>
    </mxGraphModel>
  </diagram>
</mxfile>
